<?xml version="1.0" encoding="utf-8"?>
<!-- Generator: Adobe Illustrator 22.0.1, SVG Export Plug-In . SVG Version: 6.00 Build 0)  -->
<svg version="1.1" id="Layer_1" xmlns="http://www.w3.org/2000/svg" xmlns:xlink="http://www.w3.org/1999/xlink" x="0px" y="0px"
	 viewBox="0 0 663.7 465.6" style="enable-background:new 0 0 663.7 465.6;" xml:space="preserve">
<style type="text/css">
	.st0{fill:#F0C881;}
	.st1{fill:#102E46;}
	.st2{fill:#252D42;}
	.st3{fill:#F0C780;}
	.st4{fill:none;stroke:#FFFFFF;stroke-miterlimit:10;}
</style>
<g>
	<path class="st0" d="M613.3,420.6c2.1,0,4.1,0.4,6,1.2c2,0.8,3.8,1.9,5.5,3.2c1.8,1.3,3.5,2.8,5.1,4.4c1.6,1.6,3.2,3.3,4.7,4.8
		c0.8,0.8,1.6,1.7,2.6,2.7c1,0.9,1.9,1.9,2.9,2.7c1,0.9,1.9,1.7,2.7,2.3c0.6,0.6,1.3,1,2.1,1.3v-24.5h10.2v37.9
		c-0.8,0.1-1.5,0.2-2.3,0.2h-2c-2.5,0-4.9-0.4-7.2-1.3c-2.2-0.8-4.2-2-6.1-3.3c-1.9-1.4-3.7-2.9-5.3-4.6c-1.6-1.7-3.3-3.4-4.9-5.1
		l-3.6-3.7c-1-1.1-2.1-2.1-3.3-3c-1-0.8-2-1.5-3.2-2.1c-1-0.5-2.1-0.7-3.2-0.7c-1.9-0.2-3.8,0.6-5.1,2.1c-1,1.5-1.5,3.3-1.5,5.1
		c0,1.4,0.2,2.8,0.7,4.1c0.4,1.2,1,2.4,1.6,3.5c0.6,1,1.2,1.9,1.9,2.7c0.6,0.8,1.1,1.3,1.5,1.7l-8.6,6.1c-2.3-2.5-4.2-5.3-5.5-8.4
		c-1.5-3.2-2.2-6.7-2.2-10.3c-0.1-2.9,0.3-5.8,1.2-8.6c0.6-2.2,1.7-4.2,3.2-6c1.4-1.6,3.1-2.7,5.1-3.4
		C608.7,420.9,611,420.6,613.3,420.6z"/>
	<path class="st0" d="M626.7,370.9c9.6,0,16.9,1.8,22,5.4c8.3,6,10.2,17.6,4.2,25.9c-1.2,1.6-2.6,3-4.2,4.2
		c-5.1,3.6-12.4,5.4-22,5.4c-4.3,0.1-8.5-0.4-12.6-1.4c-3.3-0.8-6.5-2.2-9.3-4.1c-2.4-1.7-4.4-3.9-5.7-6.5c-1.3-2.6-2-5.5-2-8.4
		c-0.2-6,2.7-11.7,7.7-15C609.9,372.7,617.2,370.9,626.7,370.9z M626.7,383.4c-2.6,0-5.2,0.1-7.8,0.4c-2.1,0.2-4.1,0.7-6,1.3
		c-1.5,0.5-2.9,1.3-4,2.5c-0.9,1.1-1.4,2.4-1.4,3.9c0,1.4,0.5,2.8,1.4,3.8c1.1,1.1,2.5,2,4,2.5c2,0.7,4,1.1,6,1.3
		c2.6,0.3,5.2,0.4,7.8,0.4c2.6,0,5.2-0.1,7.8-0.4c2.1-0.2,4.1-0.6,6.1-1.3c1.5-0.5,2.9-1.3,4-2.5c0.9-1,1.4-2.4,1.4-3.8
		c0-1.4-0.5-2.8-1.4-3.9c-1.1-1.1-2.5-2-4-2.5c-2-0.7-4-1.1-6.1-1.3C631.9,383.5,629.3,383.4,626.7,383.4L626.7,383.4z"/>
	<path class="st0" d="M610.2,362.4c-0.7-1.6-1.4-3.2-2.3-5c-0.8-1.7-1.8-3.4-2.8-5.1s-2.1-3.2-3.2-4.7c-1.1-1.4-2.3-2.8-3.6-4.1
		v-8.5h56.8v12.2h-40.9c1.2,1.7,2.2,3.6,3,5.5c0.9,2,1.7,4,2.3,5.9L610.2,362.4z"/>
	<path class="st0" d="M639.4,278.1c2.3,0,4.6,0.4,6.8,1.3c2.1,0.9,3.9,2.2,5.4,3.8c1.6,1.8,2.8,4,3.6,6.3c0.9,2.8,1.4,5.8,1.3,8.8
		c0.1,3.3-0.4,6.5-1.6,9.6c-0.9,2.3-2.3,4.4-4,6.2c-1.5,1.5-3.2,2.6-5.2,3.3c-1.7,0.6-3.4,0.9-5.2,1c-1.5,0-3.1-0.2-4.5-0.6
		c-1.3-0.4-2.6-1-3.7-1.8c-1.1-0.8-2.1-1.6-3.1-2.6c-0.9-1-1.8-2-2.7-3.1c-1.6,2-3.5,3.8-5.6,5.2c-2.2,1.2-4.6,1.8-7.1,1.7
		c-2.2,0-4.3-0.4-6.3-1.3c-2-0.9-3.8-2.2-5.3-3.8c-1.6-1.7-2.8-3.8-3.6-6c-0.9-2.5-1.4-5.1-1.3-7.8c-0.1-2.9,0.4-5.8,1.4-8.6
		c0.8-2.2,2.1-4.2,3.6-5.9c1.4-1.5,3.1-2.6,5-3.3c1.7-0.7,3.6-1,5.4-1c2.6,0,5.1,0.7,7.3,2.1c2.1,1.3,4,3.1,5.3,5.2
		c1.6-2.7,3.8-4.9,6.4-6.6C633.9,278.8,636.6,278.1,639.4,278.1z M639.9,306.5c0.7,0,1.5-0.2,2.2-0.5c0.8-0.3,1.6-0.8,2.2-1.4
		c0.7-0.7,1.3-1.6,1.6-2.5c0.5-1.2,0.7-2.5,0.7-3.8c0-2.8-0.7-4.9-2.1-6.2c-1.2-1.2-2.9-1.9-4.6-2c-1.2,0-2.3,0.3-3.4,0.9
		c-1,0.6-1.9,1.4-2.7,2.3c-0.8,1.1-1.5,2.3-2,3.5c-0.6,1.3-1.1,2.8-1.6,4.3c1.1,1.5,2.4,2.8,4,3.9
		C635.9,306,637.9,306.5,639.9,306.5L639.9,306.5z M612.9,291.3c-0.7,0-1.3,0.1-1.9,0.4c-0.7,0.3-1.4,0.7-1.9,1.2
		c-0.6,0.6-1.1,1.4-1.5,2.2c-0.4,1-0.6,2.1-0.6,3.2c0,1.1,0.2,2.1,0.6,3.1c0.7,1.6,1.9,2.8,3.5,3.4c0.6,0.3,1.3,0.4,2,0.4
		c1.8,0,3.6-0.7,4.9-1.9c1.9-1.8,3.3-4.1,4-6.6c-1-1.6-2.2-2.9-3.8-4C616.6,291.7,614.8,291.2,612.9,291.3L612.9,291.3z"/>
</g>
<g>
	<path class="st1" d="M349.8,289.3c1.3-0.6,2.7-1.2,4.2-1.9s2.9-1.5,4.3-2.4c1.4-0.9,2.7-1.8,4-2.7c1.2-0.9,2.4-1.9,3.5-3h7.3v48.5
		h-10.4v-35c-1.5,1-3.1,1.8-4.7,2.6c-1.7,0.8-3.4,1.4-5,2L349.8,289.3z"/>
	<path class="st1" d="M394.6,327.7c0.3-3.6,0.9-7.1,1.8-10.6c0.9-3.7,2-7.3,3.2-10.9c1.2-3.4,2.7-6.8,4.3-10c1.4-2.8,3-5.6,4.8-8.1
		h-21.1v-9h34v7.6c-1.8,2.1-3.5,4.4-4.9,6.8c-1.9,3.2-3.6,6.4-5.1,9.8c-1.7,3.8-3.1,7.8-4.2,11.8c-1.2,4.1-1.9,8.3-2.2,12.6
		L394.6,327.7z"/>
	<path class="st1" d="M459.3,289.9c2.6-0.1,5.2,0.3,7.7,1c1.9,0.6,3.6,1.6,4.9,3c1.3,1.3,2.2,3,2.6,4.8c0.5,2,0.8,4.1,0.8,6.2v21.7
		c-1.5,0.3-3.6,0.7-6.2,1.1c-3.2,0.5-6.4,0.7-9.7,0.7c-2.2,0-4.3-0.2-6.5-0.6c-1.8-0.4-3.5-1.1-5-2.1c-1.4-0.9-2.5-2.2-3.2-3.8
		c-0.8-1.8-1.2-3.7-1.1-5.7c-0.1-1.9,0.4-3.8,1.3-5.5c0.8-1.5,2-2.7,3.5-3.6c1.5-0.9,3.2-1.6,5-1.9c1.9-0.4,3.9-0.6,5.8-0.6
		c1.2,0,2.4,0.1,3.6,0.2c0.9,0.1,1.7,0.2,2.6,0.5v-1c0.1-1.6-0.5-3.1-1.6-4.3c-1.1-1.1-2.9-1.6-5.6-1.6c-1.8,0-3.5,0.1-5.2,0.4
		c-1.5,0.2-3,0.6-4.5,1.1l-1.3-8.4c0.6-0.2,1.4-0.4,2.3-0.6c0.9-0.2,1.9-0.4,3-0.6c1.1-0.2,2.2-0.3,3.4-0.4S458.2,289.8,459.3,289.9
		z M460.2,320.4c1,0,2,0,2.9-0.1c0.8,0,1.5-0.1,2.2-0.2v-7.9c-0.4-0.1-1.1-0.2-1.9-0.3c-0.8-0.1-1.5-0.1-2.3-0.1
		c-0.9,0-1.9,0.1-2.8,0.2c-0.8,0.1-1.6,0.3-2.3,0.7c-0.6,0.3-1.2,0.8-1.5,1.3c-0.4,0.6-0.6,1.4-0.6,2.1c-0.1,1.4,0.5,2.7,1.6,3.4
		C457.1,320.2,458.6,320.5,460.2,320.4z"/>
	<path class="st1" d="M531.4,291.9c0,1.8-0.3,3.5-1,5.1c-0.7,1.7-1.6,3.3-2.7,4.7c-1.2,1.5-2.4,3-3.8,4.3c-1.4,1.4-2.8,2.7-4.1,4
		c-0.7,0.7-1.5,1.4-2.3,2.2s-1.6,1.6-2.3,2.5c-0.7,0.8-1.4,1.6-2,2.3c-0.5,0.5-0.8,1.1-1.1,1.8h20.8v8.8h-32.4
		c-0.1-0.7-0.2-1.3-0.1-2v-1.6c0-2.1,0.3-4.2,1.1-6.2c0.7-1.9,1.7-3.6,2.8-5.2c1.2-1.6,2.5-3.1,4-4.5c1.5-1.4,2.9-2.8,4.4-4.2l3.2-3
		c0.9-0.9,1.8-1.8,2.6-2.8c0.7-0.8,1.3-1.7,1.8-2.7c0.4-0.9,0.6-1.8,0.6-2.8c0-2.1-0.6-3.5-1.8-4.3c-1.3-0.9-2.8-1.3-4.3-1.3
		c-1.2,0-2.4,0.2-3.5,0.6c-1,0.4-2,0.8-3,1.4c-0.8,0.5-1.6,1-2.4,1.6c-0.7,0.5-1.2,1-1.5,1.3l-5.2-7.3c2.1-2,4.5-3.6,7.2-4.7
		c2.8-1.2,5.8-1.9,8.8-1.9c2.5,0,5,0.3,7.4,1c1.9,0.6,3.6,1.5,5.1,2.8c1.3,1.2,2.3,2.7,2.9,4.3C531.2,288.1,531.5,290,531.4,291.9z"
		/>
	<path class="st1" d="M571.2,291.9c0,1.8-0.3,3.5-1,5.1c-0.7,1.7-1.6,3.3-2.7,4.7c-1.1,1.6-2.4,3-3.8,4.4c-1.4,1.4-2.8,2.7-4.1,4
		c-0.7,0.7-1.5,1.4-2.3,2.2c-0.8,0.8-1.6,1.6-2.4,2.5c-0.7,0.8-1.4,1.6-2,2.3c-0.5,0.5-0.8,1.1-1.1,1.8h20.9v8.8h-32.4
		c-0.1-0.7-0.2-1.3-0.1-2v-1.6c0-2.1,0.3-4.2,1.1-6.2c0.7-1.9,1.7-3.6,2.8-5.2c1.2-1.6,2.5-3.1,4-4.5c1.5-1.4,2.9-2.8,4.4-4.2l3.2-3
		c0.9-0.9,1.8-1.8,2.6-2.8c0.7-0.8,1.3-1.7,1.8-2.7c0.4-0.9,0.6-1.8,0.6-2.8c0-2.1-0.6-3.5-1.8-4.3c-1.3-0.9-2.8-1.3-4.3-1.3
		c-1.2,0-2.4,0.2-3.5,0.6c-1,0.4-2,0.8-3,1.4c-0.8,0.5-1.6,1-2.3,1.6c-0.7,0.5-1.2,1-1.5,1.3l-5.2-7.4c2.1-2,4.5-3.6,7.2-4.7
		c2.8-1.2,5.8-1.9,8.8-1.8c2.5,0,5,0.3,7.3,1c1.9,0.6,3.6,1.5,5.1,2.8c1.3,1.2,2.3,2.7,2.9,4.3C570.9,288,571.2,290,571.2,291.9z"/>
</g>
<g>
	<path class="st1" d="M229.3,373.4c0.1,3.3-0.5,6.6-1.7,9.6c-1.1,2.6-2.8,5-4.9,6.8c-2.2,1.9-4.7,3.3-7.5,4.1
		c-3.1,0.9-6.3,1.4-9.6,1.4c-1.7,0-3.6-0.1-5.5-0.3c-1.7-0.2-3.4-0.4-5-0.8v-41.5c1.6-0.4,3.3-0.7,5-0.9c1.9-0.2,3.7-0.3,5.5-0.3
		c3.2,0,6.5,0.4,9.6,1.4c2.8,0.8,5.3,2.2,7.5,4.1c2.1,1.9,3.8,4.2,4.9,6.8C228.8,366.9,229.4,370.1,229.3,373.4z M199.4,391.2
		l1.9,0.2c1.6,0.2,3.3,0.2,4.9,0.2c2.8,0.1,5.5-0.4,8.1-1.3c2.2-0.8,4.2-2,5.8-3.6c1.6-1.6,2.8-3.6,3.5-5.8c0.8-2.5,1.2-5,1.2-7.6
		c0-2.6-0.4-5.1-1.2-7.6c-0.7-2.1-1.9-4.1-3.5-5.7c-1.7-1.6-3.7-2.9-5.8-3.6c-2.6-0.9-5.4-1.3-8.1-1.3c-1.6,0-3.3,0-4.9,0.2
		l-1.9,0.2L199.4,391.2z"/>
	<path class="st1" d="M238.8,395v-43h24.9v3.7H243v15h18.4v3.6H243v17.1h22.2v3.7L238.8,395z"/>
	<path class="st1" d="M326,373.4c0.1,3.3-0.5,6.6-1.6,9.8c-1,2.6-2.5,5-4.4,7c-1.8,1.9-4,3.3-6.4,4.3c-5,1.9-10.5,1.9-15.5,0
		c-2.4-0.9-4.6-2.4-6.4-4.3c-1.9-2-3.4-4.4-4.4-7c-2.2-6.3-2.2-13.2,0-19.5c1-2.6,2.5-5,4.4-7c1.8-1.9,4-3.3,6.4-4.3
		c5-1.9,10.5-1.9,15.5,0c2.4,0.9,4.6,2.4,6.4,4.3c1.9,2,3.4,4.4,4.4,7C325.6,366.8,326.1,370.1,326,373.4z M321.6,373.4
		c0-2.6-0.3-5.3-1.1-7.8c-0.7-2.1-1.7-4.1-3.2-5.9c-1.3-1.6-3-2.9-4.9-3.7c-4.2-1.7-8.8-1.7-13,0c-1.9,0.8-3.6,2.1-4.9,3.7
		c-1.4,1.7-2.5,3.7-3.2,5.9c-1.5,5.1-1.5,10.5,0,15.6c0.7,2.1,1.7,4.1,3.2,5.9c1.3,1.6,3,2.9,4.9,3.7c4.2,1.7,8.8,1.7,13,0
		c1.9-0.9,3.6-2.1,4.9-3.7c1.4-1.7,2.5-3.7,3.2-5.9C321.2,378.7,321.6,376.1,321.6,373.4L321.6,373.4z"/>
	<path class="st1" d="M351,395.9c-2.5,0.1-5-0.4-7.3-1.3c-1.9-0.8-3.6-2-4.9-3.6c-1.3-1.6-2.2-3.4-2.7-5.4c-0.6-2.2-0.9-4.4-0.8-6.6
		v-27.1h4.2v26.5c0,2.1,0.2,4.1,0.8,6.1c0.5,1.6,1.3,3,2.3,4.2c1,1.1,2.2,2,3.6,2.5c3.1,1.1,6.4,1.1,9.4,0c1.4-0.5,2.6-1.4,3.6-2.5
		c1.1-1.2,1.9-2.7,2.3-4.2c0.6-2,0.9-4,0.8-6.1v-26.5h4.2V379c0,2.2-0.3,4.5-0.8,6.6c-0.5,2-1.4,3.8-2.7,5.4c-1.3,1.6-3,2.8-4.9,3.6
		C356,395.5,353.5,396,351,395.9z"/>
	<path class="st1" d="M405.1,351.9v3.7h-13.8V395H387v-39.4h-13.8v-3.7L405.1,351.9z"/>
	<path class="st1" d="M427.3,395.9c-2.5,0.1-5-0.4-7.3-1.3c-1.9-0.8-3.6-2-4.9-3.6c-1.3-1.6-2.2-3.4-2.7-5.4
		c-0.6-2.2-0.9-4.4-0.8-6.6v-27.1h4.2v26.5c0,2.1,0.2,4.1,0.8,6.1c0.5,1.6,1.3,3,2.3,4.2c1,1.1,2.2,2,3.6,2.5c3.1,1.1,6.4,1.1,9.4,0
		c1.4-0.5,2.6-1.4,3.6-2.5c1.1-1.2,1.9-2.7,2.3-4.2c0.6-2,0.9-4,0.8-6.1v-26.5h4.2V379c0,2.2-0.3,4.5-0.8,6.6
		c-0.5,2-1.4,3.8-2.7,5.4c-1.3,1.6-3,2.8-4.9,3.6C432.3,395.5,429.8,396,427.3,395.9z"/>
	<path class="st1" d="M464.3,395.3c-0.7,0-1.5,0-2.5-0.1c-0.9-0.1-1.9-0.1-2.9-0.2c-1-0.1-1.9-0.2-2.8-0.4c-0.9-0.1-1.6-0.3-2.2-0.5
		v-41.4c0.8-0.2,1.6-0.4,2.5-0.5c0.9-0.1,1.9-0.3,2.8-0.4c1-0.1,1.9-0.2,2.9-0.2c0.9,0,1.8-0.1,2.6-0.1c2.2,0,4.4,0.2,6.6,0.6
		c1.9,0.3,3.8,0.9,5.5,1.9c1.5,0.8,2.8,2,3.8,3.4c1,1.6,1.5,3.4,1.4,5.3c0.1,2.1-0.6,4.2-1.8,5.9c-1.2,1.6-2.8,2.8-4.8,3.4
		c1.2,0.3,2.3,0.7,3.4,1.2c1,0.5,1.9,1.2,2.7,2.1c0.8,0.9,1.4,2,1.8,3.1c0.5,1.4,0.7,2.9,0.6,4.4c0.2,3.7-1.7,7.3-4.9,9.3
		C476,394.3,471.1,395.3,464.3,395.3z M458.2,370.7h8.2c1.5,0,2.9-0.1,4.4-0.3c1.3-0.2,2.5-0.6,3.6-1.2c1-0.6,1.8-1.4,2.4-2.4
		c0.6-1.2,0.9-2.5,0.9-3.9c0-1.3-0.3-2.5-0.9-3.6c-0.7-1-1.6-1.8-2.6-2.4c-1.3-0.7-2.6-1.1-4.1-1.3c-1.7-0.3-3.5-0.4-5.2-0.4
		c-1.5,0-2.8,0-3.9,0.1c-1.1,0.1-1.9,0.2-2.6,0.3V370.7z M458.2,374.3v17c0.6,0.1,1.6,0.2,2.8,0.3c1.2,0.1,2.5,0.2,3.8,0.2
		c1.9,0,3.7-0.1,5.6-0.4c1.6-0.2,3.2-0.7,4.8-1.4c1.3-0.6,2.4-1.6,3.3-2.7c0.9-1.3,1.3-2.9,1.2-4.5c0.1-1.4-0.2-2.9-0.9-4.1
		c-0.6-1.1-1.4-2-2.5-2.6c-1.2-0.7-2.6-1.1-3.9-1.3c-1.7-0.3-3.5-0.4-5.2-0.4L458.2,374.3z"/>
	<path class="st1" d="M521.8,364.8c0.2,2.8-0.8,5.5-2.5,7.6c-1.8,1.9-4.1,3.3-6.7,4c0.7,0.8,1.5,1.9,2.6,3.4s2.1,3,3.3,4.6
		s2.2,3.4,3.3,5.2c1,1.7,1.9,3.4,2.7,5.2h-4.5c-0.9-1.7-1.8-3.3-2.8-5c-1-1.7-2.1-3.3-3.1-4.8c-1.1-1.6-2.1-3-3.1-4.3l-2.6-3.5
		c-1.3,0.1-2.7,0.2-4,0.2h-7v17.4h-4.2v-42.2c1.7-0.5,3.5-0.8,5.2-0.9c2-0.2,3.9-0.3,5.6-0.3c5.9,0,10.4,1.1,13.4,3.4
		S521.8,360.5,521.8,364.8z M504.4,355.2c-1.6,0-2.9,0.1-4.1,0.2l-3,0.3V374h5.8c1.8,0,3.7-0.1,5.5-0.3c1.6-0.1,3.1-0.6,4.5-1.2
		c1.2-0.6,2.3-1.6,3-2.8c0.8-1.5,1.2-3.2,1.1-4.9c0.1-1.6-0.3-3.3-1.1-4.7c-0.7-1.2-1.7-2.3-2.9-3c-1.3-0.7-2.7-1.3-4.1-1.5
		C507.6,355.3,506,355.2,504.4,355.2L504.4,355.2z"/>
	<path class="st1" d="M570.2,373.4c0.1,3.3-0.5,6.6-1.6,9.8c-1,2.6-2.5,5-4.4,7c-1.8,1.9-4,3.3-6.4,4.3c-5,1.9-10.5,1.9-15.5,0
		c-2.4-0.9-4.6-2.4-6.4-4.3c-1.9-2-3.4-4.4-4.4-7c-2.2-6.3-2.2-13.2,0-19.5c1-2.6,2.5-5,4.4-7c1.8-1.9,4-3.3,6.4-4.3
		c5-1.9,10.5-1.9,15.5,0c2.4,0.9,4.6,2.4,6.4,4.3c1.9,2,3.4,4.4,4.4,7C569.7,366.8,570.2,370.1,570.2,373.4z M565.7,373.4
		c0-2.6-0.3-5.3-1.1-7.8c-0.7-2.1-1.7-4.1-3.2-5.9c-1.3-1.6-3-2.9-4.9-3.7c-4.2-1.7-8.8-1.7-13,0c-1.9,0.8-3.6,2.1-4.9,3.7
		c-1.4,1.7-2.5,3.7-3.2,5.9c-1.5,5.1-1.5,10.5,0,15.6c0.7,2.1,1.7,4.1,3.2,5.9c1.3,1.6,3,2.9,4.9,3.7c4.2,1.7,8.8,1.7,13,0
		c1.9-0.9,3.6-2.1,4.9-3.7c1.4-1.7,2.5-3.7,3.2-5.9C565.3,378.7,565.7,376.1,565.7,373.4L565.7,373.4z"/>
</g>
<g>
	<path class="st1" d="M207.4,453.6c-0.3-0.6-0.8-1.3-1.3-2.1s-1.1-1.7-1.7-2.6l-1.9-2.9c-0.7-1-1.3-1.9-2-2.9
		c-0.7-0.9-1.3-1.8-2-2.6c-0.7-0.8-1.2-1.5-1.7-2.1v15.2h-1.7v-18h1.4c0.9,1,1.8,2.1,2.8,3.4c1,1.3,2,2.6,3,4c1,1.3,1.9,2.6,2.7,3.9
		c0.8,1.3,1.5,2.4,2.1,3.4v-14.7h1.7v18H207.4z"/>
	<path class="st1" d="M225.7,453.6c-0.3-0.9-0.7-1.7-0.9-2.5c-0.3-0.8-0.6-1.6-0.8-2.4h-8.8c-0.3,0.8-0.6,1.6-0.9,2.4
		s-0.6,1.7-0.9,2.5h-1.8c0.7-1.9,1.3-3.6,1.9-5.2s1.2-3.1,1.8-4.6c0.6-1.4,1.2-2.8,1.7-4.2s1.2-2.7,1.8-4h1.6c0.7,1.3,1.3,2.7,1.8,4
		c0.5,1.3,1.1,2.7,1.8,4.2c0.6,1.4,1.2,3,1.8,4.6s1.3,3.4,2,5.2L225.7,453.6z M219.5,437.6c-0.7,1.5-1.3,3-1.9,4.5s-1.2,3.2-1.9,5
		h7.7c-0.7-1.8-1.3-3.4-1.9-5S220.2,439.1,219.5,437.6L219.5,437.6z"/>
	<path class="st1" d="M240.3,435.6v1.5h-5.8v16.5h-1.8v-16.5H227v-1.5H240.3z"/>
	<path class="st1" d="M253.9,453.6c-0.3-0.9-0.7-1.7-0.9-2.5s-0.6-1.6-0.8-2.4h-8.8c-0.3,0.8-0.6,1.6-0.9,2.4
		c-0.3,0.8-0.6,1.7-0.9,2.5h-1.8c0.7-1.9,1.3-3.6,1.9-5.2c0.6-1.6,1.2-3.1,1.8-4.6c0.6-1.4,1.2-2.8,1.7-4.2s1.2-2.7,1.8-4h1.6
		c0.7,1.3,1.3,2.7,1.8,4c0.5,1.3,1.1,2.7,1.7,4.2c0.6,1.4,1.2,3,1.8,4.6s1.3,3.4,2,5.2L253.9,453.6z M247.7,437.6
		c-0.7,1.5-1.3,3-1.9,4.5s-1.2,3.2-1.9,5h7.7c-0.7-1.8-1.3-3.4-1.9-5C249,440.6,248.4,439.1,247.7,437.6L247.7,437.6z"/>
	<path class="st1" d="M268.6,452.1v1.5h-10.2v-18h1.8V452L268.6,452.1z"/>
	<path class="st1" d="M277.6,433.3h1.6v25.1h-1.6V433.3z"/>
	<path class="st1" d="M302.1,441c0.1,1.2-0.3,2.3-1.1,3.2c-0.8,0.8-1.7,1.4-2.8,1.7c0.3,0.3,0.6,0.8,1.1,1.4s0.9,1.2,1.4,1.9
		c0.5,0.7,0.9,1.4,1.4,2.2c0.4,0.7,0.8,1.4,1.1,2.2h-1.9c-0.4-0.7-0.8-1.4-1.2-2.1c-0.4-0.7-0.9-1.4-1.3-2c-0.4-0.7-0.9-1.3-1.3-1.8
		l-1.1-1.5c-0.6,0.1-1.1,0.1-1.7,0.1h-2.9v7.3h-1.8v-17.7c0.7-0.2,1.5-0.3,2.2-0.4c0.8-0.1,1.6-0.1,2.3-0.1c2-0.1,3.9,0.4,5.6,1.4
		C301.5,437.8,302.2,439.4,302.1,441z M294.8,437c-0.7,0-1.2,0-1.7,0.1l-1.2,0.1v7.6h2.4c0.8,0,1.5,0,2.3-0.1
		c0.7-0.1,1.3-0.2,1.9-0.5c0.5-0.3,1-0.7,1.3-1.2c0.3-0.6,0.5-1.3,0.5-2c0-0.7-0.1-1.4-0.5-2c-0.3-0.5-0.7-0.9-1.2-1.2
		c-0.5-0.3-1.1-0.5-1.7-0.6C296.1,437,295.5,436.9,294.8,437L294.8,437z"/>
	<path class="st1" d="M306.1,435.6h1.8v18h-1.8L306.1,435.6z"/>
	<path class="st1" d="M328.7,444.6c0,1.4-0.2,2.8-0.7,4.1c-0.4,1.1-1,2.1-1.8,3c-0.8,0.8-1.7,1.4-2.7,1.8c-2.1,0.8-4.4,0.8-6.5,0
		c-1-0.4-1.9-1-2.7-1.8c-0.8-0.8-1.4-1.9-1.8-3c-0.9-2.6-0.9-5.5,0-8.1c0.4-1.1,1-2.1,1.8-2.9c0.8-0.8,1.7-1.4,2.7-1.8
		c2.1-0.8,4.4-0.8,6.5,0c1,0.4,1.9,1,2.7,1.8c0.8,0.8,1.4,1.8,1.8,2.9C328.5,441.8,328.7,443.2,328.7,444.6z M326.8,444.6
		c0-1.1-0.1-2.2-0.5-3.3c-0.3-0.9-0.7-1.7-1.3-2.5c-0.6-0.7-1.3-1.2-2.1-1.5c-1.7-0.7-3.7-0.7-5.4,0c-0.8,0.3-1.5,0.9-2.1,1.5
		c-0.6,0.7-1,1.6-1.3,2.5c-0.6,2.1-0.6,4.4,0,6.5c0.3,0.9,0.7,1.7,1.3,2.5c0.6,0.7,1.3,1.2,2.1,1.6c1.7,0.7,3.7,0.7,5.4,0
		c0.8-0.4,1.5-0.9,2.1-1.6c0.6-0.7,1-1.6,1.3-2.5C326.7,446.8,326.9,445.7,326.8,444.6L326.8,444.6z"/>
	<path class="st1" d="M349.8,445.1h1.8v8c-0.6,0.2-1.3,0.4-1.9,0.5c-1.2,0.2-2.4,0.3-3.6,0.3c-1.1,0-2.2-0.2-3.3-0.6
		c-1-0.4-1.9-1-2.6-1.8c-0.8-0.8-1.4-1.8-1.7-2.9c-0.4-1.3-0.6-2.6-0.6-4c0-1.4,0.2-2.7,0.7-4c0.4-1.1,1-2.1,1.8-2.9
		c0.8-0.8,1.7-1.4,2.7-1.8c1-0.4,2.2-0.6,3.3-0.6c1.1,0,2.2,0.1,3.3,0.4c0.7,0.2,1.3,0.5,1.9,0.8l-0.6,1.5c-0.6-0.4-1.3-0.7-2-0.8
		c-0.9-0.2-1.8-0.3-2.7-0.3c-0.9,0-1.7,0.2-2.5,0.5c-0.8,0.3-1.5,0.8-2.1,1.5c-0.6,0.7-1.1,1.5-1.4,2.4c-0.4,1.1-0.5,2.2-0.5,3.4
		c0,1.1,0.1,2.2,0.4,3.2c0.2,0.9,0.7,1.7,1.3,2.5c0.6,0.7,1.3,1.2,2.1,1.6c0.9,0.4,1.9,0.6,2.9,0.5c0.7,0,1.5,0,2.2-0.1
		c0.4,0,0.8-0.1,1.2-0.3V445.1z"/>
	<path class="st1" d="M367.7,441c0.1,1.2-0.3,2.3-1.1,3.2c-0.8,0.8-1.7,1.4-2.8,1.7c0.3,0.3,0.6,0.8,1.1,1.4s0.9,1.2,1.4,1.9
		c0.5,0.7,0.9,1.4,1.4,2.2c0.4,0.7,0.8,1.4,1.1,2.2h-1.9c-0.4-0.7-0.8-1.4-1.2-2.1c-0.4-0.7-0.9-1.4-1.3-2c-0.4-0.7-0.9-1.3-1.3-1.8
		l-1.1-1.5c-0.6,0.1-1.1,0.1-1.7,0.1h-2.9v7.3h-1.8v-17.7c0.7-0.2,1.5-0.3,2.2-0.4c0.8-0.1,1.6-0.1,2.3-0.1c2-0.1,3.9,0.4,5.6,1.4
		C367.1,437.8,367.8,439.4,367.7,441z M360.4,437c-0.7,0-1.2,0-1.7,0.1l-1.2,0.1v7.6h2.5c0.8,0,1.5,0,2.3-0.1
		c0.7-0.1,1.3-0.2,1.9-0.5c0.5-0.3,1-0.7,1.3-1.2c0.3-0.6,0.5-1.3,0.5-2c0-0.7-0.1-1.4-0.5-2c-0.3-0.5-0.7-0.9-1.2-1.2
		c-0.5-0.3-1.1-0.5-1.7-0.6C361.8,437,361.1,436.9,360.4,437L360.4,437z"/>
	<path class="st1" d="M384.6,453.6c-0.3-0.9-0.7-1.7-1-2.5s-0.6-1.6-0.8-2.4H374c-0.3,0.8-0.6,1.6-0.9,2.4c-0.3,0.8-0.6,1.7-0.9,2.5
		h-1.8c0.7-1.9,1.3-3.6,1.9-5.2c0.6-1.6,1.2-3.1,1.8-4.6c0.6-1.4,1.2-2.8,1.7-4.2s1.2-2.7,1.8-4h1.6c0.7,1.3,1.3,2.7,1.8,4
		c0.5,1.3,1.1,2.7,1.7,4.2c0.6,1.4,1.2,3,1.8,4.6s1.3,3.4,2,5.2L384.6,453.6z M378.4,437.6c-0.7,1.5-1.3,3-1.9,4.5s-1.2,3.2-1.9,5
		h7.7c-0.7-1.8-1.3-3.4-1.9-5C379.7,440.6,379,439.1,378.4,437.6L378.4,437.6z"/>
	<path class="st1" d="M401.3,453.6c-0.3-0.6-0.8-1.3-1.3-2.1s-1.1-1.7-1.7-2.6l-1.9-2.9c-0.7-1-1.3-1.9-2-2.9
		c-0.7-0.9-1.3-1.8-2-2.6c-0.7-0.8-1.2-1.5-1.7-2.1v15.2H389v-18h1.4c0.9,1,1.8,2.1,2.8,3.4c1,1.3,2,2.6,3,4c1,1.3,1.9,2.6,2.7,3.9
		c0.8,1.3,1.5,2.4,2.1,3.4v-14.7h1.7v18H401.3z"/>
	<path class="st1" d="M421.8,444.6c0,1.4-0.2,2.7-0.7,4c-0.4,1.1-1.1,2.1-2,2.9c-0.9,0.8-2,1.4-3.1,1.7c-1.3,0.4-2.6,0.6-4,0.6
		c-0.7,0-1.5,0-2.3-0.1c-0.7-0.1-1.4-0.2-2.1-0.4v-17.3c0.7-0.2,1.4-0.3,2.1-0.4c0.8-0.1,1.6-0.1,2.3-0.1c1.4,0,2.7,0.2,4,0.6
		c1.1,0.4,2.2,1,3.1,1.8c0.9,0.8,1.6,1.8,2,2.9C421.5,441.9,421.8,443.2,421.8,444.6z M409.3,452l0.8,0.1c0.7,0.1,1.3,0.1,2,0.1
		c1.2,0,2.3-0.2,3.4-0.5c0.9-0.3,1.7-0.8,2.4-1.5c0.7-0.7,1.2-1.5,1.5-2.4c0.3-1,0.5-2.1,0.5-3.2c0-1.1-0.1-2.1-0.5-3.2
		c-0.3-0.9-0.8-1.7-1.5-2.4c-0.7-0.7-1.5-1.2-2.4-1.5c-1.1-0.4-2.2-0.6-3.4-0.5c-0.7,0-1.3,0-2,0.1l-0.8,0.1V452z"/>
	<path class="st1" d="M425.7,453.6v-18h10.4v1.5h-8.6v6.3h7.7v1.5h-7.7v7.2h9.3v1.5L425.7,453.6z"/>
	<path class="st1" d="M460.3,444.6c0,1.4-0.2,2.7-0.7,4c-0.4,1.1-1.1,2.1-2,2.9c-0.9,0.8-2,1.4-3.1,1.7c-1.3,0.4-2.6,0.6-4,0.6
		c-0.7,0-1.5,0-2.3-0.1c-0.7-0.1-1.4-0.2-2.1-0.4v-17.3c0.7-0.2,1.4-0.3,2.1-0.4c0.8-0.1,1.6-0.1,2.3-0.1c1.4,0,2.7,0.2,4,0.6
		c1.2,0.3,2.2,0.9,3.1,1.7c0.9,0.8,1.6,1.8,2,2.9C460.1,441.8,460.4,443.2,460.3,444.6z M447.8,452l0.8,0.1c0.7,0.1,1.3,0.1,2,0.1
		c1.2,0,2.3-0.2,3.4-0.5c0.9-0.3,1.7-0.8,2.4-1.5c0.7-0.7,1.2-1.5,1.5-2.4c0.3-1,0.5-2.1,0.5-3.2c0-1.1-0.1-2.1-0.5-3.2
		c-0.3-0.9-0.8-1.7-1.5-2.4c-0.7-0.7-1.5-1.2-2.4-1.5c-1.1-0.4-2.2-0.6-3.4-0.5c-0.7,0-1.3,0-2,0.1l-0.8,0.1V452z"/>
	<path class="st1" d="M480.4,444.6c0,1.4-0.2,2.8-0.7,4.1c-0.4,1.1-1,2.1-1.8,3c-0.8,0.8-1.7,1.4-2.7,1.8c-2.1,0.8-4.4,0.8-6.5,0
		c-1-0.4-1.9-1-2.7-1.8c-0.8-0.8-1.4-1.9-1.8-3c-0.9-2.6-0.9-5.5,0-8.1c0.4-1.1,1-2.1,1.8-2.9c0.8-0.8,1.7-1.4,2.7-1.8
		c2.1-0.8,4.4-0.8,6.5,0c1,0.4,1.9,1,2.7,1.8c0.8,0.8,1.4,1.8,1.8,2.9C480.2,441.8,480.5,443.2,480.4,444.6z M478.6,444.6
		c0-1.1-0.1-2.2-0.5-3.3c-0.3-0.9-0.7-1.7-1.3-2.5c-0.6-0.7-1.3-1.2-2.1-1.5c-1.7-0.7-3.7-0.7-5.4,0c-0.8,0.3-1.5,0.9-2.1,1.5
		c-0.6,0.7-1,1.6-1.3,2.5c-0.6,2.1-0.6,4.4,0,6.5c0.3,0.9,0.7,1.7,1.3,2.5c0.6,0.7,1.3,1.2,2.1,1.6c1.7,0.7,3.7,0.7,5.4,0
		c0.8-0.4,1.5-0.9,2.1-1.6c0.6-0.7,1-1.6,1.3-2.5C478.4,446.8,478.6,445.7,478.6,444.6z"/>
	<path class="st1" d="M502.6,453.6c-0.3-0.6-0.8-1.3-1.3-2.1c-0.5-0.8-1.1-1.7-1.7-2.6l-1.9-2.9c-0.7-1-1.3-1.9-2-2.9
		c-0.7-0.9-1.3-1.8-2-2.6c-0.7-0.8-1.2-1.5-1.7-2.1v15.2h-1.7v-18h1.4c0.9,1,1.8,2.1,2.8,3.4c1,1.3,2,2.6,3,4c1,1.3,1.9,2.6,2.7,3.9
		s1.5,2.4,2.1,3.4v-14.7h1.7v18H502.6z"/>
	<path class="st1" d="M524.9,444.6c0,1.4-0.2,2.8-0.7,4.1c-0.4,1.1-1,2.1-1.8,3c-0.8,0.8-1.7,1.4-2.7,1.8c-2.1,0.8-4.4,0.8-6.5,0
		c-1-0.4-1.9-1-2.7-1.8c-0.8-0.8-1.4-1.9-1.8-3c-0.9-2.6-0.9-5.5,0-8.1c0.4-1.1,1-2.1,1.8-2.9c0.8-0.8,1.7-1.4,2.7-1.8
		c2.1-0.8,4.4-0.8,6.5,0c1,0.4,1.9,1,2.7,1.8c0.8,0.8,1.4,1.8,1.8,2.9C524.7,441.8,524.9,443.2,524.9,444.6z M523,444.6
		c0-1.1-0.1-2.2-0.5-3.3c-0.3-0.9-0.7-1.7-1.3-2.5c-0.6-0.7-1.3-1.2-2.1-1.5c-1.7-0.7-3.7-0.7-5.4,0c-0.8,0.3-1.5,0.9-2.1,1.5
		c-0.6,0.7-1,1.6-1.3,2.5c-0.6,2.1-0.6,4.4,0,6.5c0.3,0.9,0.7,1.7,1.3,2.5c0.6,0.7,1.3,1.2,2.1,1.6c1.7,0.7,3.7,0.7,5.4,0
		c0.8-0.4,1.5-0.9,2.1-1.6c0.6-0.7,1-1.6,1.3-2.5C522.9,446.8,523,445.7,523,444.6L523,444.6z"/>
	<path class="st1" d="M540.8,441c0.1,1.2-0.3,2.3-1.1,3.2c-0.8,0.8-1.8,1.4-2.8,1.7c0.3,0.3,0.6,0.8,1.1,1.4
		c0.4,0.6,0.9,1.2,1.4,1.9c0.5,0.7,0.9,1.4,1.4,2.2c0.4,0.7,0.8,1.4,1.1,2.2H540c-0.4-0.7-0.8-1.4-1.2-2.1c-0.4-0.7-0.9-1.4-1.3-2
		c-0.4-0.7-0.9-1.3-1.3-1.8l-1.1-1.5c-0.6,0.1-1.1,0.1-1.7,0.1h-2.9v7.3h-1.8v-17.7c0.7-0.2,1.5-0.3,2.2-0.4
		c0.8-0.1,1.6-0.1,2.3-0.1c2-0.1,3.9,0.4,5.6,1.4C540.2,437.8,540.9,439.4,540.8,441z M533.5,437c-0.7,0-1.2,0-1.7,0.1l-1.2,0.1v7.6
		h2.4c0.8,0,1.5,0,2.3-0.1c0.7-0.1,1.3-0.2,1.9-0.5c0.5-0.3,1-0.7,1.3-1.2c0.3-0.6,0.5-1.3,0.5-2c0-0.7-0.1-1.4-0.5-2
		c-0.3-0.5-0.7-0.9-1.2-1.2c-0.5-0.3-1.1-0.5-1.7-0.6C534.9,437,534.2,436.9,533.5,437L533.5,437z"/>
	<path class="st1" d="M556.3,435.6v1.5h-5.8v16.5h-1.8v-16.5H543v-1.5H556.3z"/>
	<path class="st1" d="M559.1,453.6v-18h10.4v1.5h-8.6v6.3h7.7v1.5h-7.7v7.2h9.3v1.5L559.1,453.6z"/>
</g>
<rect x="184.2" y="414.9" class="st0" width="396.9" height="2.8"/>
<g>
	<g>
		<polygon class="st2" points="141.9,36.6 63.1,178.2 40.7,179.6 20.7,214.3 79.2,235.8 108.5,223.2 123.9,195 184,174.8 
			195.7,178.1 195.4,193.4 160.4,238.2 160.4,259.7 181.7,259.7 195.7,279.6 221.4,264.7 240.2,268.9 243.2,287.6 264.2,280.9 
			280.2,265 276.2,227.1 290.8,212.7 306.1,212.7 310.8,225.1 352,231.9 459.8,230.1 416.9,87.9 365,59.2 301.6,62.7 240.3,52.4 
			193.8,29.1 		"/>
		<g id="triangle36_9_">
			<path class="st2" d="M127.9,176.5l55.9-1.8l14.2-35.5L127.9,176.5z"/>
		</g>
		<g id="triangle36-2_9_">
			<path class="st2" d="M184,174.5c-0.1-0.1-0.1-0.2-0.1-0.3l14.1-34.6c0-0.1,0.1-0.2,0.3-0.2l1.5,27.7c0.1,0,0.2,0.1,0.3,0.2
				c0,0.1,0,0.2-0.1,0.3l-15.6,7C184.3,174.7,184.1,174.6,184,174.5L184,174.5z"/>
		</g>
		<g id="triangle36-3_9_">
			<path class="st2" d="M352.7,231.9c-0.1-0.1-0.1-0.2-0.1-0.3l7.1-73.4c0.1-0.1,0.2-0.2,0.3-0.2c0,0,0,0,0,0l91.3,44
				c0.1,0.1,0.2,0.2,0.1,0.3c0,0,0,0.1-0.1,0.1l-98.4,29.4C353,232,352.8,232,352.7,231.9L352.7,231.9z"/>
		</g>
		<g id="triangle36-4_9_">
			<path class="st2" d="M226.2,103.6l-30.5,74.5l65-34.3L226.2,103.6z"/>
		</g>
		<g id="triangle36-5_9_">
			<path class="st2" d="M146.9,91L63,178.2l60.7,17.2L146.9,91z"/>
		</g>
		<g id="triangle36-6_9_">
			<path class="st2" d="M359.7,158L359.7,158c-0.1-0.2-0.1-0.3,0-0.4l51.5-59.2c0.1-0.1,0.2-0.1,0.3-0.1l9.6,5
				c0.1,0.1,0.2,0.2,0.1,0.4c0,0.1-0.1,0.1-0.2,0.1l-61.1,54.3C359.8,158.1,359.7,158.1,359.7,158z"/>
		</g>
		<g id="triangle36-7_9_">
			<path class="st2" d="M302.5,63.8c-0.1-0.1-0.2-0.2-0.1-0.3c0.1-0.1,0.2-0.2,0.3-0.1l113.9,24.5c0.1,0,0.1,0.1,0.2,0.2
				c0,0.1,0,0.2,0,0.2l-5.4,9.4c-0.1,0.1-0.2,0.2-0.3,0.1L302.5,63.8L302.5,63.8z"/>
		</g>
		<g id="triangle36-8_9_">
			<path class="st2" d="M226.1,104.1c-0.1-0.1-0.1-0.3,0-0.4c0,0,0.1-0.1,0.2-0.1l75.8-40.3c0.1,0,0.1,0,0.2,0l-6.4,46.8
				c0.1,0.1,0.1,0.3,0,0.4c-0.1,0.1-0.2,0.1-0.3,0.1L226.1,104.1L226.1,104.1z"/>
		</g>
		<g id="triangle36-9_9_">
			<path class="st2" d="M326.2,71.9L326.2,71.9c0.1,0.1,0.1,0.2,0.1,0.3l33.4,85.8c0,0.1-0.1,0.2-0.2,0.2c-0.1,0-0.2,0-0.3,0
				l-63-47.2c-0.1-0.1-0.1-0.2-0.1-0.3c0-0.1,0.1-0.2,0.2-0.3l29.6-38.5C326,71.8,326.1,71.8,326.2,71.9z"/>
		</g>
		<g id="triangle36-10_9_">
			<path class="st2" d="M196.7,71.2c-0.1,0-0.1,0-0.2,0l-54.2-34c-0.1-0.1-0.1-0.2-0.1-0.3c0-0.1,0.2-0.2,0.3-0.2l72.8,3.2
				c0.1,0,0.2,0,0.2,0.1c0,0.1,0,0.2,0,0.3l-18.6,30.8C196.9,71.2,196.8,71.2,196.7,71.2L196.7,71.2z"/>
		</g>
		<g id="triangle36-11_9_">
			<path class="st2" d="M196.6,71.7L196.6,71.7l-49.4,19.3c-0.1,0.1-0.3,0-0.3-0.1L128,62.1c-0.1-0.1-0.1-0.2,0-0.3
				c0.1-0.1,0.2-0.1,0.3-0.1l68.2,9.5c0.1,0,0.2,0,0.3,0.1C196.8,71.5,196.7,71.6,196.6,71.7C196.6,71.7,196.6,71.7,196.6,71.7
				L196.6,71.7z"/>
		</g>
		<g id="triangle36-12_9_">
			<path class="st2" d="M226,103.6C226,103.5,226,103.5,226,103.6c0-0.1-29.3-32.3-29.3-32.3L240,52.4l-13.6,51.1
				c0,0.1-0.2,0.2-0.3,0.2C226.1,103.6,226,103.6,226,103.6L226,103.6z"/>
		</g>
		<g id="triangle36-13_9_">
			<path class="st2" d="M293.8,175.3c-0.1-0.1-0.1-0.1-0.1-0.2l2.3-63.8c0-0.1,0.1-0.3,0.3-0.3c0.1,0,0.1,0,0.2,0.1l63,46.8
				c0.1,0.1,0.1,0.2,0.1,0.3c0,0.1-0.1,0.2-0.2,0.2l-65.3,17C294,175.4,293.9,175.4,293.8,175.3L293.8,175.3z"/>
		</g>
		<g id="triangle36-14_9_">
			<path class="st2" d="M256.5,246.1c0,0-0.1-0.1-0.1-0.1c0-0.1,0-0.2,0-0.3l37.3-69.7c0.1-0.1,0.1-0.1,0.3-0.1
				c0.1,0,0.2,0.1,0.2,0.2l-2.9,35.9c0,0.1,0,0.1,0,0.2c0,0.1-0.1,0.1-0.2,0.1l-34.3,33.7C256.6,246.1,256.6,246.1,256.5,246.1z"/>
		</g>
		<g id="triangle36-15_9_">
			<path class="st2" d="M255.9,245.8c-0.1,0-0.2-0.1-0.2-0.3l-25.6-62c0-0.1,30.4-39.7,30.5-39.8c0.1,0,12,22.6,12.1,22.7l20.7,9.4
				c0.1,0.1,0.1,0.2,0,0.3l-37.3,69.6C256.2,245.8,256.1,245.8,255.9,245.8L255.9,245.8z"/>
		</g>
		<line class="st2" x1="230.2" y1="183.5" x2="294.3" y2="157.4"/>
		<line class="st2" x1="198.3" y1="139.5" x2="226" y2="103.5"/>
		<line class="st2" x1="146.9" y1="91" x2="198.1" y2="138.9"/>
		<line class="st2" x1="226" y1="103.5" x2="146.9" y2="91"/>
		<line class="st2" x1="305.6" y1="212.7" x2="352.7" y2="231.6"/>
		<line class="st2" x1="294" y1="175.4" x2="305.6" y2="212.7"/>
		<line class="st2" x1="294.1" y1="176.1" x2="352.7" y2="231.6"/>
		<line class="st2" x1="260.3" y1="143.2" x2="294.3" y2="157.4"/>
		<line class="st2" x1="272.3" y1="166.4" x2="256.3" y2="245.7"/>
		<line class="st2" x1="109.1" y1="222.1" x2="63" y2="178.2"/>
		<line class="st2" x1="80.8" y1="235.1" x2="86.1" y2="200.1"/>
		<line class="st2" x1="20.7" y1="214.3" x2="86.1" y2="200.1"/>
		<line class="st2" x1="63.1" y1="178.2" x2="21.1" y2="214.2"/>
		<line class="st2" x1="230.2" y1="183.5" x2="181.9" y2="260"/>
		<line class="st2" x1="195.4" y1="193.4" x2="230.2" y2="183.5"/>
		<line class="st2" x1="160.4" y1="238.2" x2="181.9" y2="260"/>
		<line class="st2" x1="264.3" y1="280.3" x2="276.5" y2="228"/>
		<line class="st2" x1="240.2" y1="268.9" x2="269.5" y2="258"/>
		<line class="st2" x1="256.6" y1="246.1" x2="269.5" y2="258"/>
		<line class="st2" x1="239.6" y1="268.8" x2="255.8" y2="245.5"/>
		<line class="st2" x1="221.4" y1="264.7" x2="255.8" y2="245.5"/>
		<line class="st2" x1="181.9" y1="260" x2="239.2" y2="254.8"/>
		<line class="st2" x1="241.1" y1="254.1" x2="209.7" y2="219.5"/>
		<line class="st2" x1="160.4" y1="238.2" x2="208.1" y2="218.6"/>
		<line class="st2" x1="255.9" y1="245.8" x2="208.1" y2="218.6"/>
		<line class="st2" x1="392" y1="130.1" x2="439.3" y2="163"/>
		<line class="st2" x1="400.2" y1="177.4" x2="439.9" y2="163.4"/>
		<polyline class="st2" points="392.2,130.1 400.4,177.4 375.2,190.6 451.5,202.6 354.4,212.9 369,175.9 359.8,158.2 		"/>
		<line class="st2" x1="369" y1="175.9" x2="374.9" y2="190.6"/>
	</g>
	<g>
		<polygon class="st3" points="132.3,46.8 53.5,188.4 31.1,189.8 11.1,224.5 69.7,246 99,233.4 114.3,205.2 174.5,185 186.2,188.3 
			185.8,203.6 150.8,248.4 150.8,269.9 172.1,269.9 186.1,289.8 211.8,274.9 230.7,279.1 233.7,297.8 254.6,291.1 270.6,275.2 
			266.6,237.3 281.3,222.9 296.5,222.9 301.2,235.3 342.5,242.1 450.3,240.3 407.3,98.1 355.4,69.4 292,72.9 230.8,62.6 184.2,39.3 
					"/>
		<g id="triangle36_8_">
			<path class="st3" d="M118.4,186.7l55.9-1.8l14.2-35.5L118.4,186.7z"/>
		</g>
		<g id="triangle36-2_8_">
			<path class="st3" d="M174.5,184.7c-0.1-0.1-0.1-0.2-0.1-0.3l14.1-34.6c0-0.1,0.1-0.2,0.3-0.2l1.5,27.7c0.1,0,0.2,0.1,0.3,0.2
				c0,0.1,0,0.2-0.1,0.3l-15.6,7C174.7,184.9,174.6,184.8,174.5,184.7L174.5,184.7z"/>
		</g>
		<g id="triangle36-3_8_">
			<path class="st3" d="M343.2,242.1c-0.1-0.1-0.1-0.2-0.1-0.3l7.1-73.4c0.1-0.1,0.2-0.2,0.3-0.2c0,0,0,0,0,0l91.3,44
				c0.1,0.1,0.2,0.2,0.1,0.3c0,0,0,0.1-0.1,0.1l-98.4,29.4C343.4,242.2,343.3,242.2,343.2,242.1L343.2,242.1z"/>
		</g>
		<g id="triangle36-4_8_">
			<path class="st3" d="M216.7,113.8l-30.5,74.5l65-34.3L216.7,113.8z"/>
		</g>
		<g id="triangle36-5_8_">
			<path class="st3" d="M137.3,101.2l-83.8,87.2l60.7,17.2L137.3,101.2z"/>
		</g>
		<g id="triangle36-6_8_">
			<path class="st3" d="M350.1,168.2L350.1,168.2c-0.1-0.2-0.1-0.3,0-0.4l51.5-59.2c0.1-0.1,0.2-0.1,0.3-0.1l9.6,5
				c0.1,0.1,0.2,0.2,0.1,0.4c0,0.1-0.1,0.1-0.2,0.1l-61.1,54.3C350.3,168.3,350.2,168.3,350.1,168.2z"/>
		</g>
		<g id="triangle36-7_8_">
			<path class="st3" d="M292.9,74c-0.1-0.1-0.2-0.2-0.1-0.3c0.1-0.1,0.2-0.2,0.3-0.1l113.9,24.5c0.1,0,0.1,0.1,0.2,0.2
				c0,0.1,0,0.2,0,0.2l-5.4,9.4c-0.1,0.1-0.2,0.2-0.3,0.1L292.9,74L292.9,74z"/>
		</g>
		<g id="triangle36-8_8_">
			<path class="st3" d="M216.5,114.3c-0.1-0.1-0.1-0.3,0-0.4c0,0,0.1-0.1,0.2-0.1l75.8-40.3c0.1,0,0.1,0,0.2,0l-6.4,46.8
				c0.1,0.1,0.1,0.3,0,0.4c-0.1,0.1-0.2,0.1-0.3,0.1L216.5,114.3L216.5,114.3z"/>
		</g>
		<g id="triangle36-9_8_">
			<path class="st3" d="M316.6,82.1L316.6,82.1c0.1,0.1,0.1,0.2,0.1,0.3l33.4,85.8c0,0.1-0.1,0.2-0.2,0.2c-0.1,0-0.2,0-0.3,0
				l-63-47.2c-0.1-0.1-0.1-0.2-0.1-0.3c0-0.1,0.1-0.2,0.2-0.3l29.6-38.5C316.4,82,316.5,82,316.6,82.1z"/>
		</g>
		<g id="triangle36-10_8_">
			<path class="st3" d="M187.2,81.4c-0.1,0-0.1,0-0.2,0l-54.2-34c-0.1-0.1-0.1-0.2-0.1-0.3c0-0.1,0.2-0.2,0.3-0.2l72.8,3.2
				c0.1,0,0.2,0,0.2,0.1c0,0.1,0,0.2,0,0.3l-18.6,30.8C187.3,81.4,187.3,81.4,187.2,81.4L187.2,81.4z"/>
		</g>
		<g id="triangle36-11_8_">
			<path class="st3" d="M187,81.9L187,81.9l-49.4,19.3c-0.1,0.1-0.3,0-0.3-0.1l-18.9-28.8c-0.1-0.1-0.1-0.2,0-0.3
				c0.1-0.1,0.2-0.1,0.3-0.1l68.2,9.5c0.1,0,0.2,0,0.3,0.1C187.2,81.7,187.2,81.8,187,81.9C187.1,81.9,187.1,81.9,187,81.9L187,81.9
				z"/>
		</g>
		<g id="triangle36-12_8_">
			<path class="st3" d="M216.5,113.8C216.4,113.7,216.4,113.7,216.5,113.8c0-0.1-29.3-32.3-29.3-32.3l43.3-18.9l-13.6,51.1
				c0,0.1-0.2,0.2-0.3,0.2C216.5,113.8,216.5,113.8,216.5,113.8L216.5,113.8z"/>
		</g>
		<g id="triangle36-13_8_">
			<path class="st3" d="M284.2,185.5c-0.1-0.1-0.1-0.1-0.1-0.2l2.3-63.8c0-0.1,0.1-0.3,0.3-0.3c0.1,0,0.1,0,0.2,0.1l63,46.8
				c0.1,0.1,0.1,0.2,0.1,0.3c0,0.1-0.1,0.2-0.2,0.2l-65.3,17C284.4,185.6,284.3,185.6,284.2,185.5L284.2,185.5z"/>
		</g>
		<g id="triangle36-14_8_">
			<path class="st3" d="M247,256.2c0,0-0.1-0.1-0.1-0.1c0-0.1,0-0.2,0-0.3l37.3-69.7c0.1-0.1,0.1-0.1,0.3-0.1c0.1,0,0.2,0.1,0.2,0.2
				l-2.9,35.9c0,0.1,0,0.1,0,0.2c0,0.1-0.1,0.1-0.2,0.1l-34.3,33.7C247.1,256.3,247,256.3,247,256.2z"/>
		</g>
		<g id="triangle36-15_8_">
			<path class="st3" d="M246.4,256c-0.1,0-0.2-0.1-0.2-0.3l-25.6-62c0-0.1,30.4-39.7,30.5-39.8s12,22.6,12.1,22.7L284,186
				c0.1,0.1,0.1,0.2,0,0.3l-37.3,69.6C246.7,256,246.5,256,246.4,256L246.4,256z"/>
		</g>
		<line class="st3" x1="220.7" y1="193.7" x2="284.8" y2="167.6"/>
		<line class="st3" x1="188.7" y1="149.6" x2="216.4" y2="113.7"/>
		<line class="st3" x1="137.3" y1="101.2" x2="188.5" y2="149.1"/>
		<line class="st3" x1="216.4" y1="113.7" x2="137.3" y2="101.2"/>
		<line class="st3" x1="296" y1="222.9" x2="343.1" y2="241.8"/>
		<line class="st3" x1="284.5" y1="185.6" x2="296" y2="222.9"/>
		<line class="st3" x1="284.6" y1="186.3" x2="343.1" y2="241.8"/>
		<line class="st3" x1="250.8" y1="153.4" x2="284.8" y2="167.6"/>
		<line class="st3" x1="262.8" y1="176.6" x2="246.7" y2="255.9"/>
		<line class="st3" x1="99.6" y1="232.3" x2="53.5" y2="188.4"/>
		<line class="st3" x1="71.3" y1="245.3" x2="76.5" y2="210.3"/>
		<line class="st3" x1="11.1" y1="224.5" x2="76.5" y2="210.3"/>
		<line class="st3" x1="53.5" y1="188.4" x2="11.5" y2="224.4"/>
		<line class="st3" x1="220.7" y1="193.7" x2="172.3" y2="270.2"/>
		<line class="st3" x1="185.8" y1="203.6" x2="220.7" y2="193.7"/>
		<line class="st3" x1="150.8" y1="248.4" x2="172.3" y2="270.2"/>
		<line class="st3" x1="254.7" y1="290.5" x2="266.9" y2="238.2"/>
		<line class="st3" x1="230.7" y1="279.1" x2="259.9" y2="268.2"/>
		<line class="st3" x1="247.1" y1="256.3" x2="259.9" y2="268.2"/>
		<line class="st3" x1="230" y1="279" x2="246.2" y2="255.7"/>
		<line class="st3" x1="211.8" y1="274.9" x2="246.2" y2="255.7"/>
		<line class="st3" x1="172.3" y1="270.2" x2="229.6" y2="265"/>
		<line class="st3" x1="231.6" y1="264.3" x2="200.2" y2="229.7"/>
		<line class="st3" x1="150.8" y1="248.4" x2="198.5" y2="228.8"/>
		<line class="st3" x1="246.4" y1="256" x2="198.5" y2="228.8"/>
		<line class="st3" x1="382.5" y1="140.3" x2="429.8" y2="173.2"/>
		<line class="st3" x1="390.7" y1="187.6" x2="430.4" y2="173.6"/>
		<polyline class="st3" points="382.7,140.3 390.9,187.6 365.6,200.8 441.9,212.8 344.8,223.1 359.4,186.1 350.3,168.4 		"/>
		<line class="st3" x1="359.4" y1="186.1" x2="365.3" y2="200.8"/>
	</g>
	<g>
		<polygon class="st4" points="123.4,59.9 44.6,201.5 22.2,202.9 2.3,237.6 60.8,259.1 90.1,246.5 105.5,218.3 165.6,198 
			177.3,201.3 177,216.6 142,261.5 142,283 163.3,283 177.3,302.8 203,287.9 221.9,292.2 224.9,310.8 245.8,304.1 261.8,288.2 
			257.8,250.3 272.4,235.9 287.7,235.9 292.4,248.2 333.6,255.1 441.4,253.2 398.4,111 346.5,82.3 283.1,85.9 221.9,75.6 
			175.3,52.4 		"/>
		<g id="triangle36_7_">
			<path class="st4" d="M109.5,199.8l55.9-1.8l14.2-35.5L109.5,199.8z"/>
		</g>
		<g id="triangle36-2_7_">
			<path class="st4" d="M165.6,197.8c-0.1-0.1-0.1-0.2-0.1-0.3l14-34.6c0-0.1,0.1-0.2,0.3-0.2l1.5,27.7c0.1,0,0.2,0.1,0.3,0.2
				c0,0.1,0,0.2-0.1,0.3l-15.6,7C165.8,197.9,165.7,197.9,165.6,197.8L165.6,197.8z"/>
		</g>
		<g id="triangle36-3_7_">
			<path class="st4" d="M334.3,255.1c-0.1-0.1-0.1-0.2-0.1-0.3l7.1-73.4c0.1-0.1,0.2-0.2,0.3-0.2c0,0,0,0,0,0l91.3,44
				c0.1,0.1,0.2,0.2,0.1,0.3c0,0,0,0.1-0.1,0.1l-98.4,29.4C334.6,255.1,334.5,255.1,334.3,255.1L334.3,255.1z"/>
		</g>
		<g id="triangle36-4_7_">
			<path class="st4" d="M207.8,126.8l-30.4,74.5l65-34.4L207.8,126.8z"/>
		</g>
		<g id="triangle36-5_7_">
			<path class="st4" d="M128.4,114.2l-83.8,87.3l60.7,17.1L128.4,114.2z"/>
		</g>
		<g id="triangle36-6_7_">
			<path class="st4" d="M341.2,181.2L341.2,181.2c-0.1-0.2-0.1-0.3,0-0.4l51.5-59.2c0.1-0.1,0.2-0.1,0.3-0.1l9.6,5
				c0.1,0.1,0.2,0.2,0.1,0.4c0,0.1-0.1,0.1-0.2,0.1l-61.1,54.3C341.4,181.2,341.3,181.2,341.2,181.2z"/>
		</g>
		<g id="triangle36-7_7_">
			<path class="st4" d="M284,87c-0.1-0.1-0.2-0.2-0.1-0.3c0.1-0.1,0.2-0.2,0.3-0.1L398.1,111c0.1,0,0.1,0.1,0.2,0.2
				c0,0.1,0,0.2,0,0.2l-5.4,9.4c-0.1,0.1-0.2,0.2-0.3,0.1L284,87L284,87z"/>
		</g>
		<g id="triangle36-8_7_">
			<path class="st4" d="M207.6,127.3c-0.1-0.1-0.1-0.3,0-0.4c0,0,0.1-0.1,0.2-0.1l75.8-40.4c0.1,0,0.1,0,0.2,0l-6.4,46.8
				c0.1,0.1,0.1,0.3,0,0.4c-0.1,0.1-0.2,0.1-0.3,0.1L207.6,127.3L207.6,127.3z"/>
		</g>
		<g id="triangle36-9_7_">
			<path class="st4" d="M307.7,95L307.7,95c0.1,0.1,0.1,0.2,0.1,0.3l33.5,85.8c0,0.1-0.1,0.2-0.2,0.2c-0.1,0-0.2,0-0.3,0l-63-47.2
				c-0.1-0.1-0.1-0.2-0.1-0.3c0-0.1,0.1-0.2,0.2-0.3l29.6-38.5C307.5,95,307.6,95,307.7,95z"/>
		</g>
		<g id="triangle36-10_7_">
			<path class="st4" d="M178.2,94.5c-0.1,0-0.1,0-0.2,0l-54.2-34c-0.1-0.1-0.1-0.2-0.1-0.3c0-0.1,0.2-0.2,0.3-0.2l72.8,3.2
				c0.1,0,0.2,0,0.2,0.1c0,0.1,0,0.2,0,0.3l-18.5,30.8C178.4,94.4,178.4,94.4,178.2,94.5L178.2,94.5z"/>
		</g>
		<g id="triangle36-11_7_">
			<path class="st4" d="M178.1,95L178.1,95l-49.4,19.4c-0.1,0.1-0.3,0-0.3-0.1l-18.9-28.8c-0.1-0.1-0.1-0.2,0-0.3
				c0.1-0.1,0.2-0.1,0.3-0.1l68.2,9.4c0.1,0,0.2,0,0.3,0.1C178.3,94.7,178.3,94.9,178.1,95C178.1,94.9,178.1,94.9,178.1,95L178.1,95
				z"/>
		</g>
		<g id="triangle36-12_7_">
			<path class="st4" d="M207.6,126.8C207.5,126.8,207.5,126.7,207.6,126.8c0-0.1-29.4-32.3-29.3-32.3l43.3-18.9L208,126.7
				c0,0.1-0.2,0.2-0.3,0.2C207.6,126.8,207.6,126.8,207.6,126.8L207.6,126.8z"/>
		</g>
		<g id="triangle36-13_7_">
			<path class="st4" d="M275.4,198.5c-0.1-0.1-0.1-0.1-0.1-0.2l2.3-63.8c0-0.1,0.1-0.3,0.3-0.3c0.1,0,0.1,0,0.2,0.1l63,46.8
				c0.1,0.1,0.1,0.2,0.1,0.3c0,0.1-0.1,0.2-0.2,0.2l-65.3,17C275.6,198.6,275.5,198.6,275.4,198.5L275.4,198.5z"/>
		</g>
		<g id="triangle36-14_7_">
			<path class="st4" d="M238.1,269.3c0,0-0.1-0.1-0.1-0.1c0-0.1,0-0.2,0-0.3l37.2-69.7c0.1-0.1,0.1-0.1,0.3-0.1
				c0.1,0,0.2,0.1,0.2,0.2l-2.9,35.9c0,0.1,0,0.1,0,0.2c0,0.1-0.1,0.1-0.2,0.1l-34.3,33.7C238.2,269.3,238.2,269.3,238.1,269.3z"/>
		</g>
		<g id="triangle36-15_7_">
			<path class="st4" d="M237.6,269c-0.1,0-0.2-0.1-0.2-0.3l-25.6-62c0-0.1,30.4-39.7,30.5-39.8c0.1,0,12,22.6,12.1,22.6l20.8,9.4
				c0.1,0.1,0.1,0.2,0,0.3l-37.3,69.6C237.8,269,237.7,269.1,237.6,269L237.6,269z"/>
		</g>
		<line class="st4" x1="211.8" y1="206.7" x2="275.9" y2="180.6"/>
		<line class="st4" x1="179.9" y1="162.7" x2="207.5" y2="126.7"/>
		<line class="st4" x1="128.4" y1="114.2" x2="179.6" y2="162.1"/>
		<line class="st4" x1="207.5" y1="126.7" x2="128.4" y2="114.2"/>
		<line class="st4" x1="287.2" y1="235.9" x2="334.3" y2="254.8"/>
		<line class="st4" x1="275.6" y1="198.6" x2="287.2" y2="235.9"/>
		<line class="st4" x1="275.7" y1="199.3" x2="334.3" y2="254.8"/>
		<line class="st4" x1="241.9" y1="166.4" x2="275.9" y2="180.6"/>
		<line class="st4" x1="253.9" y1="189.6" x2="237.9" y2="268.9"/>
		<line class="st4" x1="90.7" y1="245.4" x2="44.6" y2="201.5"/>
		<line class="st4" x1="62.5" y1="258.4" x2="67.7" y2="223.4"/>
		<line class="st4" x1="2.3" y1="237.6" x2="67.7" y2="223.4"/>
		<line class="st4" x1="44.6" y1="201.5" x2="2.7" y2="237.5"/>
		<line class="st4" x1="211.8" y1="206.7" x2="163.5" y2="283.3"/>
		<line class="st4" x1="177" y1="216.6" x2="211.8" y2="206.7"/>
		<line class="st4" x1="142" y1="261.5" x2="163.5" y2="283.3"/>
		<line class="st4" x1="245.9" y1="303.5" x2="258.1" y2="251.2"/>
		<line class="st4" x1="221.9" y1="292.2" x2="251.1" y2="281.2"/>
		<line class="st4" x1="238.3" y1="269.3" x2="251.1" y2="281.2"/>
		<line class="st4" x1="221.2" y1="292" x2="237.4" y2="268.7"/>
		<line class="st4" x1="203" y1="287.9" x2="237.4" y2="268.7"/>
		<line class="st4" x1="163.5" y1="283.3" x2="220.8" y2="278"/>
		<line class="st4" x1="222.7" y1="277.3" x2="191.3" y2="242.7"/>
		<line class="st4" x1="142" y1="261.5" x2="189.7" y2="241.8"/>
		<line class="st4" x1="237.6" y1="269" x2="189.7" y2="241.8"/>
		<line class="st4" x1="373.6" y1="153.2" x2="420.9" y2="186.1"/>
		<line class="st4" x1="381.8" y1="200.6" x2="421.5" y2="186.5"/>
		<polyline class="st4" points="373.8,153.2 382,200.5 356.8,213.7 433,225.7 336,236.1 350.5,199.1 341.4,181.3 		"/>
		<line class="st4" x1="350.5" y1="199.1" x2="356.5" y2="213.8"/>
	</g>
</g>
</svg>
